<?xml version="1.0" encoding="UTF-8"?>
<svg width="52" height="59" viewBox="0 0 52 59" version="1.1" xmlns="http://www.w3.org/2000/svg" xmlns:xlink="http://www.w3.org/1999/xlink">
  <g stroke="none" stroke-width="1" fill="none" fill-rule="evenodd">
    <g id="Group-7" transform="translate(0.300518, 0.301020)">
                        <path d="M36.3942487,50.4446388 C36.3942487,45.9040469 36.3732124,41.3637561 36.415285,36.8231643 C36.415285,35.9803071 36.1207772,35.8120367 35.3634715,35.8222714 C32.1034508,35.8538786 28.8431295,35.8222714 25.5825078,35.8222714 C22.3221865,35.8222714 19.0618653,35.8644143 15.801544,35.8222714 C14.9706114,35.8120367 14.6971399,36.0540571 14.707658,36.8969143 C14.7392124,41.332149 14.7181762,45.756848 14.7286943,50.1917816 C14.7286943,50.3814245 14.7286943,50.5816031 14.7602487,50.7712459 C14.8654301,51.5295163 15.2440829,51.9512459 16.0750155,51.9301745 C17.2320104,51.908802 18.3992228,51.9301745 19.5562176,51.9301745 C21.0074197,51.9301745 21.2703731,51.6667816 21.2703731,50.1707102 C21.2703731,47.5897612 21.2917098,45.019348 21.2601554,42.4489347 C21.2493368,41.7957204 21.4702176,41.5741694 22.122342,41.5847051 C24.4152953,41.6060776 26.7079482,41.627149 29.000601,41.5741694 C29.7894611,41.553399 29.9682694,41.848098 29.9577513,42.585899 C29.9156788,45.240598 29.936715,47.9055316 29.9472332,50.5605316 C29.9472332,51.5614245 30.3153679,51.9193378 31.2935544,51.9193378 C32.5028394,51.9301745 33.722943,51.9301745 34.9427461,51.9301745 C36.1000415,51.9193378 36.3942487,51.6351745 36.3942487,50.4446388 M44.303285,8.22080714 C44.5977927,7.17837347 44.2506943,6.74610816 43.209399,6.74610816 C41.8318238,6.73557245 40.4539482,6.73557245 39.0658549,6.73557245 C37.8141969,6.74610816 37.4039896,7.04140918 37.0463731,8.25271531 C36.1207772,11.4868786 35.1954819,14.7315776 34.269886,17.9657408 C33.8176062,19.5352612 33.3548083,21.1050827 32.860456,22.7907969 C31.9874508,19.7146694 31.1463005,16.7965776 30.325886,13.867649 C29.7894611,11.9609857 29.2740725,10.03295 28.7376477,8.12628673 C28.4224041,7.04140918 28.0118964,6.74610816 26.8972746,6.73557245 L24.8252021,6.73557245 C23.1741554,6.73557245 22.9322383,6.94628673 22.4799585,8.55825102 C21.1757098,13.2990214 19.8612435,18.0289551 18.5254404,22.8224041 C17.789171,20.2730622 17.0532021,17.8182408 16.348487,15.342649 C15.6648083,12.98295 15.0232021,10.6124143 14.3290052,8.25271531 C13.9927254,7.07271531 13.5404456,6.74610816 12.3939689,6.73557245 C10.9214301,6.73557245 9.45970984,6.73557245 7.99768912,6.74610816 C6.93565803,6.74610816 6.58825907,7.19914388 6.86203109,8.20003673 C7.12498446,9.15878673 7.38793782,10.1172357 7.67162694,11.06545 C9.80680829,18.1869908 11.9522073,25.2979959 14.0870881,32.4195367 C14.2448601,32.9463224 14.4870777,33.1672714 15.0757927,33.1570367 C17.1163109,33.1254296 19.1565285,33.1254296 21.2072642,33.1570367 C21.7857617,33.1672714 22.0381969,32.9463224 22.1959689,32.4195367 C23.1846736,29.2275163 24.1944145,26.0354959 25.1828187,22.8434755 C25.3405907,22.3482969 25.4773264,21.8425827 25.677171,21.1369908 C26.8867565,25.0240673 28.022715,28.6585878 29.1268187,32.3036439 C29.3266632,32.925251 29.6001347,33.1886439 30.2943316,33.1672714 C32.1136684,33.1148939 33.9438238,33.0938224 35.7631606,33.1672714 C36.6572021,33.2097153 36.9937824,32.8936439 37.2356995,32.0510878 C39.0343005,25.9301388 40.8746736,19.8200265 42.704829,13.7099143 C43.2514715,11.8872357 43.7984145,10.0645571 44.303285,8.22080714 M51.1605078,2.01617449 L51.1605078,56.6709449 C51.1605078,58.029751 50.6135648,58.5881439 49.2570259,58.5881439 L1.85569948,58.5881439 C0.604041451,58.5881439 0.078134715,58.029751 0.078134715,56.7549296 L0.078134715,29.2591235 L0.078134715,2.00563878 C0.078134715,0.509567347 0.509378238,0.0779040816 1.9819171,0.0779040816 L49.2149534,0.0779040816 C50.6661554,0.0779040816 51.1605078,0.572781633 51.1605078,2.01617449" id="Fill-1" fill="#DF9838"></path>
                        <path d="M43.2094591,6.74613827 C44.2507544,6.74613827 44.5978528,7.17840357 44.3033451,8.22083724 C43.7984746,10.0645872 43.2515316,11.8872658 42.7045886,13.7099444 C40.8747337,19.8200566 39.0340601,25.9298679 37.2357596,32.0508168 C36.9938425,32.893674 36.6572622,33.2097454 35.7632207,33.1673015 C33.9435834,33.0938526 32.1137285,33.114924 30.2943917,33.1673015 C29.6001948,33.188674 29.3267233,32.9252811 29.1268788,32.303674 C28.0224746,28.6586179 26.8868166,25.0240974 25.6772311,21.1370209 C25.4773865,21.8426128 25.3406508,22.348327 25.1828788,22.8435056 C24.1944746,26.035526 23.1847337,29.2275464 22.196029,32.4195668 C22.038257,32.9463526 21.7858218,33.1673015 21.2073244,33.1570668 C19.1565886,33.1254597 17.1160705,33.1254597 15.0758528,33.1570668 C14.4868373,33.1673015 14.2449202,32.9463526 14.0871482,32.4195668 C11.9522674,25.298026 9.80686839,18.1870209 7.67168705,11.0654801 C7.38769741,10.1172658 7.12474404,9.15881684 6.86179067,8.20006684 C6.58831917,7.19917398 6.93541762,6.74613827 7.99774922,6.74613827 C9.45946943,6.73560255 10.9214902,6.73560255 12.3937285,6.73560255 C13.5402052,6.74613827 13.992485,7.07274541 14.3290653,8.25274541 C15.0232622,10.6124444 15.6648684,12.9829801 16.3485472,15.3426791 C17.0529617,17.8182709 17.7892311,20.2730923 18.5255005,22.8224342 C19.8613036,18.0289852 21.1757699,13.2990515 22.4800187,8.55828112 C22.9322984,6.94631684 23.1742155,6.73560255 24.8252622,6.73560255 L26.8973347,6.73560255 C28.0119565,6.74613827 28.4221637,7.04113827 28.7377078,8.12631684 C29.2741326,10.0329801 29.7895212,11.9610158 30.3259461,13.8676791 C31.1460601,16.7966077 31.9875109,19.7146995 32.8605161,22.790827 C33.3548684,21.1051128 33.8176663,19.5352913 34.2696456,17.9657709 C35.195542,14.7316077 36.1208373,11.4869087 37.0464332,8.25274541 C37.4040497,7.04113827 37.8139565,6.74613827 39.0656145,6.73560255 C40.4540083,6.73560255 41.8318839,6.73560255 43.2094591,6.74613827" id="Fill-3" fill="#FEFEFE"></path>
                        <path d="M36.4153751,36.8231643 C36.3733026,41.3637561 36.3943389,45.9040469 36.3943389,50.4446388 C36.3943389,51.6351745 36.0998311,51.9193378 34.9428363,51.9301745 C33.7230332,51.9301745 32.5029295,51.9301745 31.2936446,51.9193378 C30.315458,51.9193378 29.9473233,51.5614245 29.9473233,50.5605316 C29.9368052,47.9055316 29.9157689,45.240598 29.9578415,42.585899 C29.9683596,41.848098 29.7895513,41.553399 29.0006912,41.5741694 C26.7080383,41.627149 24.415085,41.6060776 22.1224321,41.5847051 C21.4703078,41.5741694 21.2494269,41.7957204 21.2599451,42.4486337 C21.2914995,45.019348 21.2704632,47.5897612 21.2704632,50.1707102 C21.2704632,51.6667816 21.0075098,51.9301745 19.5560073,51.9301745 C18.399313,51.9301745 17.2321005,51.908802 16.0748052,51.9301745 C15.2441731,51.9512459 14.8655202,51.5295163 14.7603389,50.7712459 C14.7287845,50.5816031 14.7287845,50.3814245 14.7287845,50.1917816 C14.7182663,45.756848 14.7393026,41.332149 14.7077482,36.8969143 C14.6972301,36.0540571 14.9707016,35.8120367 15.8016342,35.8222714 C19.0619554,35.8644143 22.3222767,35.8222714 25.5825979,35.8222714 C28.8429192,35.8222714 32.1032404,35.8538786 35.3635617,35.8222714 C36.1208674,35.8120367 36.4153751,35.9803071 36.4153751,36.8231643" id="Fill-5" fill="#FEFEFE"></path>
                    </g>
  </g>
</svg>
